<svg width="35" height="35" viewBox="0 0 35 35" fill="none" xmlns="http://www.w3.org/2000/svg">
<path d="M23.125 6.25C23.8637 6.25 24.5951 6.3955 25.2776 6.67818C25.9601 6.96086 26.5801 7.37519 27.1025 7.89752C27.6248 8.41985 28.0391 9.03995 28.3218 9.72241C28.6045 10.4049 28.75 11.1363 28.75 11.875C28.75 12.6137 28.6045 13.3451 28.3218 14.0276C28.0391 14.7101 27.6248 15.3301 27.1025 15.8525C26.5801 16.3748 25.9601 16.7891 25.2776 17.0718C24.5951 17.3545 23.8637 17.5 23.125 17.5C21.6332 17.5 20.2024 16.9074 19.1475 15.8525C18.0926 14.7976 17.5 13.3668 17.5 11.875C17.5 10.3832 18.0926 8.95242 19.1475 7.89752C20.2024 6.84263 21.6332 6.25 23.125 6.25V6.25ZM26.875 11.875C26.875 11.3825 26.778 10.8949 26.5895 10.4399C26.4011 9.98497 26.1249 9.57157 25.7767 9.22335C25.4284 8.87513 25.015 8.59891 24.5601 8.41045C24.1051 8.222 23.6175 8.125 23.125 8.125C22.6325 8.125 22.1449 8.222 21.6899 8.41045C21.235 8.59891 20.8216 8.87513 20.4734 9.22335C20.1251 9.57157 19.8489 9.98497 19.6605 10.4399C19.472 10.8949 19.375 11.3825 19.375 11.875C19.375 12.8696 19.7701 13.8234 20.4734 14.5267C21.1766 15.2299 22.1304 15.625 23.125 15.625C24.1196 15.625 25.0734 15.2299 25.7767 14.5267C26.4799 13.8234 26.875 12.8696 26.875 11.875V11.875ZM10 8.75C11.1603 8.75 12.2731 9.21094 13.0936 10.0314C13.9141 10.8519 14.375 11.9647 14.375 13.125C14.375 14.2853 13.9141 15.3981 13.0936 16.2186C12.2731 17.0391 11.1603 17.5 10 17.5C8.83968 17.5 7.72688 17.0391 6.90641 16.2186C6.08594 15.3981 5.625 14.2853 5.625 13.125C5.625 11.9647 6.08594 10.8519 6.90641 10.0314C7.72688 9.21094 8.83968 8.75 10 8.75V8.75ZM12.5 13.125C12.5 12.462 12.2366 11.8261 11.7678 11.3572C11.2989 10.8884 10.663 10.625 10 10.625C9.33696 10.625 8.70108 10.8884 8.23224 11.3572C7.76339 11.8261 7.5 12.462 7.5 13.125C7.5 13.788 7.76339 14.4239 8.23224 14.8928C8.70108 15.3616 9.33696 15.625 10 15.625C10.663 15.625 11.2989 15.3616 11.7678 14.8928C12.2366 14.4239 12.5 13.788 12.5 13.125ZM32.5 22.8125C32.5 22.0666 32.2037 21.3512 31.6762 20.8238C31.1488 20.2963 30.4334 20 29.6875 20H16.5625C15.8166 20 15.1012 20.2963 14.5738 20.8238C14.0463 21.3512 13.75 22.0666 13.75 22.8125V23.4763C13.7516 23.5774 13.7587 23.6784 13.7713 23.7788C13.7994 24.0366 13.8454 24.2922 13.9088 24.5438C14.1154 25.3646 14.4839 26.1359 14.9925 26.8125C16.26 28.5038 18.6775 30 23.125 30C27.5725 30 29.99 28.5038 31.2575 26.8125C31.7657 26.1358 32.1337 25.3645 32.34 24.5438C32.4216 24.217 32.4739 23.8836 32.4962 23.5475C32.4978 23.5238 32.4991 23.5 32.5 23.4763V22.8125ZM30.625 23.4313V23.4538L30.6138 23.5788C30.6013 23.6963 30.5763 23.8725 30.5213 24.0888C30.3755 24.6669 30.1163 25.2104 29.7588 25.6875C28.9163 26.8088 27.115 28.125 23.125 28.125C19.135 28.125 17.3338 26.8088 16.4925 25.6875C16.055 25.105 15.8375 24.5225 15.73 24.0888C15.6775 23.8804 15.6428 23.668 15.6263 23.4538L15.625 23.4313V22.8125C15.625 22.5639 15.7238 22.3254 15.8996 22.1496C16.0754 21.9738 16.3139 21.875 16.5625 21.875H29.6875C29.9361 21.875 30.1746 21.9738 30.3504 22.1496C30.5262 22.3254 30.625 22.5639 30.625 22.8125V23.4313V23.4313ZM13.625 27.025C12.6588 27.3213 11.4663 27.5 10.0025 27.5C6.54 27.5 4.605 26.505 3.55375 25.305C3.1334 24.8302 2.82197 24.2691 2.64125 23.6613C2.56988 23.4158 2.52422 23.1636 2.505 22.9088L2.5025 22.85V22.8125C2.5025 22.0666 2.79882 21.3512 3.32626 20.8238C3.85371 20.2963 4.56908 20 5.315 20H13.6325C13.14 20.5138 12.78 21.1575 12.61 21.875H5.31375C5.06726 21.875 4.83068 21.972 4.65522 22.1452C4.47976 22.3183 4.37954 22.5535 4.37625 22.8C4.38734 22.9135 4.4091 23.0256 4.44125 23.135C4.54582 23.4813 4.72503 23.8004 4.96625 24.07C5.555 24.745 6.9 25.625 10.0025 25.625C11.1788 25.625 12.1025 25.4988 12.8288 25.3038C13.0214 25.9084 13.2889 26.4867 13.625 27.025V27.025Z" fill="black"/>
</svg>
