<svg width="46" height="46" viewBox="0 0 46 46" fill="none" xmlns="http://www.w3.org/2000/svg">
<path d="M23 3.83331C33.58 3.83331 42.1667 12.42 42.1667 23C42.1667 33.58 33.58 42.1666 23 42.1666C12.42 42.1666 3.83335 33.58 3.83335 23C3.83335 12.42 12.42 3.83331 23 3.83331ZM23 38.3333C31.4525 38.3333 38.3334 31.4525 38.3334 23C38.3334 14.5475 31.4525 7.66665 23 7.66665C14.5475 7.66665 7.66669 14.5475 7.66669 23C7.66669 31.4525 14.5475 38.3333 23 38.3333Z" fill="#585858"/>
<path d="M30.6667 30.6667C28.5496 30.6667 26.8333 28.9504 26.8333 26.8333C26.8333 24.7162 28.5496 23 30.6667 23C32.7838 23 34.5 24.7162 34.5 26.8333C34.5 28.9504 32.7838 30.6667 30.6667 30.6667Z" fill="#585858"/>
<path d="M23 19.1667C20.8829 19.1667 19.1667 17.4504 19.1667 15.3333C19.1667 13.2162 20.8829 11.5 23 11.5C25.1171 11.5 26.8334 13.2162 26.8334 15.3333C26.8334 17.4504 25.1171 19.1667 23 19.1667Z" fill="#585858"/>
<path d="M15.3334 30.6667C13.2163 30.6667 11.5 28.9504 11.5 26.8333C11.5 24.7162 13.2163 23 15.3334 23C17.4504 23 19.1667 24.7162 19.1667 26.8333C19.1667 28.9504 17.4504 30.6667 15.3334 30.6667Z" fill="#585858"/>
</svg>
