<svg width="35" height="35" viewBox="0 0 35 35" fill="none" xmlns="http://www.w3.org/2000/svg">
<path fill-rule="evenodd" clip-rule="evenodd" d="M9.47915 29.1666C8.51221 29.1666 7.58488 28.7825 6.90115 28.0988C6.21743 27.4151 5.83331 26.4877 5.83331 25.5208C5.83331 24.5539 6.21743 23.6265 6.90115 22.9428C7.58488 22.2591 8.51221 21.875 9.47915 21.875C10.4461 21.875 11.3734 22.2591 12.0571 22.9428C12.7409 23.6265 13.125 24.5539 13.125 25.5208C13.125 26.4877 12.7409 27.4151 12.0571 28.0988C11.3734 28.7825 10.4461 29.1666 9.47915 29.1666ZM9.47915 30.625C8.12544 30.625 6.82717 30.0872 5.86995 29.13C4.91274 28.1728 4.37498 26.8745 4.37498 25.5208C4.37498 24.1671 4.91274 22.8688 5.86995 21.9116C6.82717 20.9544 8.12544 20.4166 9.47915 20.4166C10.8329 20.4166 12.1311 20.9544 13.0883 21.9116C14.0456 22.8688 14.5833 24.1671 14.5833 25.5208C14.5833 26.8745 14.0456 28.1728 13.0883 29.13C12.1311 30.0872 10.8329 30.625 9.47915 30.625V30.625Z" fill="black"/>
<path fill-rule="evenodd" clip-rule="evenodd" d="M9.47915 22.9688C9.28576 22.9688 9.10029 23.0456 8.96355 23.1823C8.8268 23.3191 8.74998 23.5045 8.74998 23.6979V25.219L8.23446 25.7345C8.10163 25.872 8.02814 26.0562 8.0298 26.2474C8.03146 26.4386 8.10815 26.6214 8.24334 26.7566C8.37853 26.8918 8.56142 26.9685 8.7526 26.9702C8.94379 26.9718 9.12798 26.8983 9.2655 26.7655L10.2083 25.8227V23.6979C10.2083 23.5045 10.1315 23.3191 9.99475 23.1823C9.858 23.0456 9.67253 22.9688 9.47915 22.9688ZM24.7916 16.7708H26.25V18.2292H24.7916V16.7708ZM26.25 15.3125C26.6368 15.3125 27.0077 15.4661 27.2812 15.7396C27.5547 16.0131 27.7083 16.3841 27.7083 16.7708V18.2292C27.7083 18.6159 27.5547 18.9869 27.2812 19.2604C27.0077 19.5339 26.6368 19.6875 26.25 19.6875H24.7916C24.4049 19.6875 24.0339 19.5339 23.7604 19.2604C23.487 18.9869 23.3333 18.6159 23.3333 18.2292V16.7708C23.3333 16.3841 23.487 16.0131 23.7604 15.7396C24.0339 15.4661 24.4049 15.3125 24.7916 15.3125H26.25ZM18.9583 16.7708H20.4166V18.2292H18.9583V16.7708ZM20.4166 15.3125C20.8034 15.3125 21.1744 15.4661 21.4478 15.7396C21.7213 16.0131 21.875 16.3841 21.875 16.7708V18.2292C21.875 18.6159 21.7213 18.9869 21.4478 19.2604C21.1744 19.5339 20.8034 19.6875 20.4166 19.6875H18.9583C18.5715 19.6875 18.2006 19.5339 17.9271 19.2604C17.6536 18.9869 17.5 18.6159 17.5 18.2292V16.7708C17.5 16.3841 17.6536 16.0131 17.9271 15.7396C18.2006 15.4661 18.5715 15.3125 18.9583 15.3125H20.4166ZM13.125 16.7708H14.5833V18.2292H13.125V16.7708ZM14.5833 15.3125C14.9701 15.3125 15.341 15.4661 15.6145 15.7396C15.888 16.0131 16.0416 16.3841 16.0416 16.7708V18.2292C16.0416 18.6159 15.888 18.9869 15.6145 19.2604C15.341 19.5339 14.9701 19.6875 14.5833 19.6875H13.125C12.7382 19.6875 12.3673 19.5339 12.0938 19.2604C11.8203 18.9869 11.6666 18.6159 11.6666 18.2292V16.7708C11.6666 16.3841 11.8203 16.0131 12.0938 15.7396C12.3673 15.4661 12.7382 15.3125 13.125 15.3125H14.5833ZM24.7916 22.6042H26.25V24.0625H24.7916V22.6042ZM26.25 21.1458C26.6368 21.1458 27.0077 21.2995 27.2812 21.573C27.5547 21.8465 27.7083 22.2174 27.7083 22.6042V24.0625C27.7083 24.4493 27.5547 24.8202 27.2812 25.0937C27.0077 25.3672 26.6368 25.5208 26.25 25.5208H24.7916C24.4049 25.5208 24.0339 25.3672 23.7604 25.0937C23.487 24.8202 23.3333 24.4493 23.3333 24.0625V22.6042C23.3333 22.2174 23.487 21.8465 23.7604 21.573C24.0339 21.2995 24.4049 21.1458 24.7916 21.1458H26.25ZM18.9583 22.6042H20.4166V24.0625H18.9583V22.6042ZM20.4166 21.1458C20.8034 21.1458 21.1744 21.2995 21.4478 21.573C21.7213 21.8465 21.875 22.2174 21.875 22.6042V24.0625C21.875 24.4493 21.7213 24.8202 21.4478 25.0937C21.1744 25.3672 20.8034 25.5208 20.4166 25.5208H18.9583C18.5715 25.5208 18.2006 25.3672 17.9271 25.0937C17.6536 24.8202 17.5 24.4493 17.5 24.0625V22.6042C17.5 22.2174 17.6536 21.8465 17.9271 21.573C18.2006 21.2995 18.5715 21.1458 18.9583 21.1458H20.4166Z" fill="black"/>
<path fill-rule="evenodd" clip-rule="evenodd" d="M29.1667 8.75C29.1667 8.55661 29.0898 8.37115 28.9531 8.2344C28.8164 8.09766 28.6309 8.02083 28.4375 8.02083H24.7917V6.5625H28.4375C29.0177 6.5625 29.5741 6.79297 29.9843 7.2032C30.3945 7.61344 30.625 8.16984 30.625 8.75V26.25C30.625 26.8302 30.3945 27.3866 29.9843 27.7968C29.5741 28.207 29.0177 28.4375 28.4375 28.4375H13.6682C13.9792 27.9921 14.2167 27.4997 14.3719 26.9792H28.4375C28.6309 26.9792 28.8164 26.9023 28.9531 26.7656C29.0898 26.6289 29.1667 26.4434 29.1667 26.25V8.75ZM10.2083 20.4677C9.72468 20.3985 9.23365 20.3985 8.75 20.4677V8.75C8.75 8.16984 8.98047 7.61344 9.3907 7.2032C9.80094 6.79297 10.3573 6.5625 10.9375 6.5625H13.125V8.02083H10.9375C10.7441 8.02083 10.5586 8.09766 10.4219 8.2344C10.2852 8.37115 10.2083 8.55661 10.2083 8.75V20.4677ZM23.3333 8.02083H15.6311V6.5625H23.3333V8.02083Z" fill="black"/>
<path fill-rule="evenodd" clip-rule="evenodd" d="M8.75002 13.125H29.1667V11.6666H8.75002V13.125Z" fill="black"/>
<path d="M26.25 5.10417C26.25 4.91078 26.1732 4.72531 26.0364 4.58857C25.8997 4.45182 25.7142 4.375 25.5208 4.375C25.3274 4.375 25.142 4.45182 25.0052 4.58857C24.8685 4.72531 24.7917 4.91078 24.7917 5.10417V8.75C24.7917 8.94339 24.8685 9.12885 25.0052 9.2656C25.142 9.40234 25.3274 9.47917 25.5208 9.47917C25.7142 9.47917 25.8997 9.40234 26.0364 9.2656C26.1732 9.12885 26.25 8.94339 26.25 8.75V5.10417ZM16.0417 5.10417C16.0417 4.91078 15.9648 4.72531 15.8281 4.58857C15.6914 4.45182 15.5059 4.375 15.3125 4.375C15.1191 4.375 14.9336 4.45182 14.7969 4.58857C14.6602 4.72531 14.5833 4.91078 14.5833 5.10417V8.75C14.5833 8.94339 14.6602 9.12885 14.7969 9.2656C14.9336 9.40234 15.1191 9.47917 15.3125 9.47917C15.5059 9.47917 15.6914 9.40234 15.8281 9.2656C15.9648 9.12885 16.0417 8.94339 16.0417 8.75V5.10417Z" fill="black"/>
</svg>
