<svg width="40" height="40" viewBox="0 0 48 48" fill="none" xmlns="http://www.w3.org/2000/svg">
<path d="M44.25 18C44.2451 17.007 43.8484 16.056 43.1462 15.3538C42.444 14.6516 41.493 14.2549 40.5 14.25H35.25V9C35.2451 8.00696 34.8484 7.05599 34.1462 6.35379C33.444 5.6516 32.493 5.25493 31.5 5.25H7.5C6.50696 5.25493 5.55599 5.6516 4.85379 6.35379C4.1516 7.05599 3.75493 8.00696 3.75 9V33C3.75 33.5967 3.98705 34.169 4.40901 34.591C4.83097 35.0129 5.40326 35.25 6 35.25C6.51411 35.2543 7.01285 35.0748 7.40625 34.7438L12.75 30.4313V34.5C12.7549 35.493 13.1516 36.444 13.8538 37.1462C14.556 37.8484 15.507 38.2451 16.5 38.25H33.7875L40.5938 43.7438C40.9872 44.0748 41.4859 44.2543 42 44.25C42.5967 44.25 43.169 44.013 43.591 43.591C44.0129 43.169 44.25 42.5967 44.25 42V18ZM8.25 28.2938V9.75H30.75V24.75H13.425C12.9053 24.7461 12.4008 24.9254 12 25.2563L8.25 28.2938ZM36 34.2563C35.5992 33.9254 35.0947 33.7461 34.575 33.75H17.25V29.25H31.5C32.493 29.2451 33.444 28.8484 34.1462 28.1462C34.8484 27.444 35.2451 26.493 35.25 25.5V18.75H39.75V37.2938L36 34.2563Z" fill="#D19726"/>
</svg>
