<svg width="46" height="46" viewBox="0 0 46 46" fill="none" xmlns="http://www.w3.org/2000/svg">
<path d="M14.375 39.0713L18.0981 35.3481L20.125 37.375L14.375 43.125L2.875 31.625L4.90187 29.5981L14.375 39.0713Z" fill="white"/>
<path d="M10.0625 7.1875H14.375V5.75C14.3773 4.9882 14.6809 4.25826 15.2196 3.71958C15.7583 3.18091 16.4882 2.87728 17.25 2.875H28.75C29.5118 2.87728 30.2417 3.18091 30.7804 3.71958C31.3191 4.25826 31.6227 4.9882 31.625 5.75V7.1875H35.9375C36.6993 7.18977 37.4292 7.49341 37.9679 8.03208C38.5066 8.57076 38.8102 9.3007 38.8125 10.0625V40.25C38.8102 41.0118 38.5066 41.7417 37.9679 42.2804C37.4292 42.8191 36.6993 43.1227 35.9375 43.125H23V40.25H35.9375V10.0625H31.625V14.375H14.375V10.0625H10.0625V25.875H7.1875V10.0625C7.18978 9.3007 7.49341 8.57076 8.03208 8.03208C8.57076 7.49341 9.3007 7.18977 10.0625 7.1875ZM17.25 11.5H28.75V5.75H17.25V11.5Z" fill="white"/>
</svg>
