<svg width="32" height="32" viewBox="0 0 32 32" fill="none" xmlns="http://www.w3.org/2000/svg">
<g clip-path="url(#clip0_64_351)">
<path d="M26.6667 17.3333H18.6667C18.313 17.3333 17.9739 17.1929 17.7238 16.9428C17.4738 16.6928 17.3333 16.3536 17.3333 16V5.33333C17.3333 4.97971 17.4738 4.64057 17.7238 4.39052C17.9739 4.14048 18.313 4 18.6667 4H26.6667C27.0203 4 27.3594 4.14048 27.6095 4.39052C27.8595 4.64057 28 4.97971 28 5.33333V16C28 16.3536 27.8595 16.6928 27.6095 16.9428C27.3594 17.1929 27.0203 17.3333 26.6667 17.3333ZM28 26.6667C28 27.0203 27.8595 27.3594 27.6095 27.6095C27.3594 27.8595 27.0203 28 26.6667 28H18.6667C18.313 28 17.9739 27.8595 17.7238 27.6095C17.4738 27.3594 17.3333 27.0203 17.3333 26.6667V21.3333C17.3333 20.9797 17.4738 20.6406 17.7238 20.3905C17.9739 20.1405 18.313 20 18.6667 20H26.6667C27.0203 20 27.3594 20.1405 27.6095 20.3905C27.8595 20.6406 28 20.9797 28 21.3333V26.6667ZM14.6667 26.6667C14.6667 27.0203 14.5262 27.3594 14.2761 27.6095C14.0261 27.8595 13.6869 28 13.3333 28H5.33332C4.9797 28 4.64056 27.8595 4.39051 27.6095C4.14046 27.3594 3.99998 27.0203 3.99998 26.6667V17.3333C3.99998 16.9797 4.14046 16.6406 4.39051 16.3905C4.64056 16.1405 4.9797 16 5.33332 16H13.3333C13.6869 16 14.0261 16.1405 14.2761 16.3905C14.5262 16.6406 14.6667 16.9797 14.6667 17.3333V26.6667ZM13.3333 13.3333H5.33332C4.9797 13.3333 4.64056 13.1929 4.39051 12.9428C4.14046 12.6928 3.99998 12.3536 3.99998 12V5.33333C3.99998 4.97971 4.14046 4.64057 4.39051 4.39052C4.64056 4.14048 4.9797 4 5.33332 4H13.3333C13.6869 4 14.0261 4.14048 14.2761 4.39052C14.5262 4.64057 14.6667 4.97971 14.6667 5.33333V12C14.6667 12.3536 14.5262 12.6928 14.2761 12.9428C14.0261 13.1929 13.6869 13.3333 13.3333 13.3333Z" />
</g>
<defs>
<clipPath id="clip0_64_351">
<rect width="32" height="32" fill="white"/>
</clipPath>
</defs>
</svg>
