<svg width="46" height="49" viewBox="0 0 46 49" fill="none" xmlns="http://www.w3.org/2000/svg">
<path d="M23 33.365C24.7059 33.365 26.3734 32.8322 27.7918 31.8339C29.2102 30.8356 30.3157 29.4168 30.9685 27.7567C31.6213 26.0966 31.7921 24.2699 31.4593 22.5076C31.1265 20.7453 30.305 19.1265 29.0988 17.8559C27.8926 16.5854 26.3557 15.7201 24.6826 15.3696C23.0096 15.019 21.2754 15.1989 19.6994 15.8866C18.1233 16.5742 16.7763 17.7386 15.8286 19.2327C14.8808 20.7267 14.375 22.4832 14.375 24.28C14.3777 26.6886 15.2872 28.9978 16.9041 30.701C18.5211 32.4041 20.7133 33.3622 23 33.365ZM23 18.2233C24.1372 18.2233 25.2489 18.5786 26.1945 19.2441C27.1401 19.9096 27.8771 20.8555 28.3123 21.9622C28.7475 23.0689 28.8614 24.2867 28.6395 25.4616C28.4176 26.6365 27.87 27.7157 27.0659 28.5627C26.2617 29.4098 25.2372 29.9866 24.1218 30.2203C23.0064 30.454 21.8502 30.3341 20.7996 29.8756C19.7489 29.4172 18.8509 28.6409 18.219 27.6449C17.5872 26.6489 17.25 25.4779 17.25 24.28C17.2519 22.6743 17.8583 21.1349 18.9362 19.9995C20.0142 18.8641 21.4756 18.2253 23 18.2233Z" fill="white"/>
<path d="M23 39.4216C25.0221 39.4201 27.0212 38.9698 28.8672 38.1003C30.7131 37.2308 32.3645 35.9614 33.7137 34.3749L31.5718 32.355C30.293 33.8612 28.6768 35.0065 26.8705 35.6866C25.0641 36.3667 23.1249 36.56 21.2294 36.2489C19.334 35.9378 17.5425 35.1323 16.0182 33.9056C14.4938 32.6789 13.285 31.07 12.5019 29.2254C11.7187 27.3809 11.386 25.3593 11.5341 23.3447C11.6822 21.3301 12.3064 19.3865 13.3499 17.691C14.3933 15.9954 15.8229 14.6018 17.5084 13.6369C19.1938 12.672 21.0817 12.1666 23 12.1666V9.13831C19.1875 9.13831 15.5312 10.7336 12.8353 13.5732C10.1395 16.4128 8.625 20.2642 8.625 24.28C8.625 28.2958 10.1395 32.1471 12.8353 34.9867C15.5312 37.8264 19.1875 39.4216 23 39.4216Z" fill="white"/>
<path d="M23 45.4783C26.9803 45.4783 30.8713 44.2351 34.1808 41.9058C37.4904 39.5765 40.0699 36.2658 41.5931 32.3923C43.1163 28.5188 43.5148 24.2565 42.7383 20.1444C41.9618 16.0323 40.045 12.2552 37.2305 9.29052C34.416 6.32588 30.8301 4.30694 26.9262 3.48899C23.0223 2.67105 18.9758 3.09085 15.2985 4.6953C11.6211 6.29975 8.47803 9.0168 6.26667 12.5028C4.0553 15.9889 2.87499 20.0874 2.87499 24.28C2.88108 29.9002 5.00334 35.2883 8.77619 39.2624C12.549 43.2365 17.6644 45.4719 23 45.4783ZM23 6.11001C26.4117 6.11001 29.7468 7.17566 32.5836 9.1722C35.4203 11.1688 37.6313 14.0065 38.9369 17.3267C40.2425 20.6468 40.5841 24.3002 39.9185 27.8248C39.2529 31.3494 37.61 34.587 35.1976 37.1281C32.7851 39.6693 29.7115 41.3998 26.3653 42.1009C23.0191 42.802 19.5507 42.4421 16.3987 41.0669C13.2467 39.6917 10.5526 37.3628 8.65714 34.3747C6.76169 31.3867 5.74999 27.8737 5.74999 24.28C5.75532 19.4627 7.57443 14.8444 10.8083 11.4381C14.0421 8.03175 18.4266 6.11562 23 6.11001Z" fill="white"/>
</svg>
