<svg width="40" height="40" viewBox="0 0 48 48" fill="none" xmlns="http://www.w3.org/2000/svg">
<path d="M4 24C4 35.046 12.954 44 24 44C35.046 44 44 35.046 44 24C44 12.954 35.046 4 24 4C12.954 4 4 12.954 4 24Z" stroke="#D62424" stroke-width="1.5" stroke-linecap="round" stroke-linejoin="round"/>
<path d="M5.25999 17.0001H42.74M26 4.1001C26 4.1001 32 12.0001 32 24.0001C32 36.0001 26 43.9001 26 43.9001V4.1001ZM22 43.9001C22 43.9001 16 36.0001 16 24.0001C16 12.0001 22 4.1001 22 4.1001V43.9001ZM5.25999 31.0001H42.74H5.25999Z" stroke="#D62424" stroke-width="1.5" stroke-linecap="round" stroke-linejoin="round"/>
</svg>
