<svg width="21" height="21" viewBox="0 0 21 21" fill="none" xmlns="http://www.w3.org/2000/svg">
<path d="M17.8007 15.0116H16.359C16.2606 15.0116 16.1683 15.0547 16.1068 15.1306C15.9632 15.3049 15.8094 15.4731 15.6474 15.633C14.9848 16.2963 14.1999 16.8249 13.3362 17.1896C12.4414 17.5675 11.4796 17.7614 10.5082 17.7597C9.52585 17.7597 8.57428 17.5669 7.68014 17.1896C6.81641 16.8249 6.03153 16.2963 5.36891 15.633C4.70511 14.972 4.1758 14.1885 3.81032 13.3259C3.43093 12.4317 3.2402 11.4822 3.2402 10.4999C3.2402 9.51759 3.43298 8.56807 3.81032 7.67393C4.17536 6.81055 4.70036 6.03331 5.36891 5.3668C6.03747 4.7003 6.81471 4.1753 7.68014 3.81026C8.57428 3.43292 9.52585 3.24014 10.5082 3.24014C11.4905 3.24014 12.4421 3.43087 13.3362 3.81026C14.2016 4.1753 14.9789 4.7003 15.6474 5.3668C15.8094 5.52882 15.9612 5.69698 16.1068 5.86925C16.1683 5.94512 16.2627 5.98819 16.359 5.98819H17.8007C17.9299 5.98819 18.0099 5.84464 17.9382 5.73594C16.3652 3.29141 13.6131 1.67335 10.4856 1.68155C5.57194 1.69385 1.63239 5.68262 1.68161 10.5901C1.73083 15.4197 5.66423 19.3183 10.5082 19.3183C13.6274 19.3183 16.3673 17.7023 17.9382 15.2639C18.0079 15.1552 17.9299 15.0116 17.8007 15.0116ZM19.6239 10.3707L16.7138 8.07384C16.6051 7.9877 16.4472 8.06563 16.4472 8.20303V9.76163H10.0078C9.91755 9.76163 9.84372 9.83546 9.84372 9.92569V11.0741C9.84372 11.1644 9.91755 11.2382 10.0078 11.2382H16.4472V12.7968C16.4472 12.9342 16.6072 13.0121 16.7138 12.926L19.6239 10.6291C19.6435 10.6138 19.6594 10.5942 19.6703 10.5718C19.6812 10.5494 19.6868 10.5248 19.6868 10.4999C19.6868 10.475 19.6812 10.4504 19.6703 10.4281C19.6594 10.4057 19.6435 10.3861 19.6239 10.3707V10.3707Z" fill="#FF0303"/>
</svg>
