<svg width="32" height="32" viewBox="0 0 32 32" fill="none" xmlns="http://www.w3.org/2000/svg">
<path d="M3.11535 10.575C3.81647 8.90161 4.83646 7.38064 6.11847 6.09684C7.39665 4.81081 8.91497 3.78833 10.5872 3.08747C12.3003 2.366 14.1409 1.99618 15.9997 1.99997H16.0622C17.9528 2.00934 19.781 2.38434 21.5028 3.12184C23.1608 3.82989 24.6648 4.85418 25.931 6.13747C27.2006 7.41839 28.2089 8.93403 28.8997 10.6C29.6169 12.3324 29.9802 14.1907 29.9685 16.0656C29.9591 18.2343 29.4403 20.3875 28.4716 22.3125V27.0625C28.4716 27.8562 27.8278 28.5 27.0372 28.5H22.2935C20.3595 29.4759 18.2253 29.9893 16.0591 30H15.9935C14.1247 30 12.3153 29.6375 10.6091 28.9281C8.94531 28.2356 7.43266 27.225 6.15598 25.9531C4.86847 24.675 3.85598 23.1812 3.1466 21.5156C2.41223 19.7906 2.03723 17.9562 2.02785 16.0625C2.0216 14.1593 2.39035 12.3125 3.11535 10.575ZM22.2372 17.5C23.0622 17.5 23.7341 16.8281 23.7341 16C23.7341 15.1718 23.0622 14.5 22.2372 14.5C21.4122 14.5 20.7403 15.1718 20.7403 16C20.7403 16.8281 21.4091 17.5 22.2372 17.5ZM15.9997 17.5C16.8247 17.5 17.4966 16.8281 17.4966 16C17.4966 15.1718 16.8247 14.5 15.9997 14.5C15.1747 14.5 14.5028 15.1718 14.5028 16C14.5028 16.8281 15.1747 17.5 15.9997 17.5ZM9.76223 17.5C10.5872 17.5 11.2591 16.8281 11.2591 16C11.2591 15.1718 10.5872 14.5 9.76223 14.5C8.93723 14.5 8.26535 15.1718 8.26535 16C8.26535 16.8281 8.93723 17.5 9.76223 17.5Z" />
</svg>
