<svg width="13" height="13" viewBox="0 0 11 11" fill="none" xmlns="http://www.w3.org/2000/svg">
<path d="M4.66125 8.70833C4.72972 8.70857 4.79737 8.69345 4.85924 8.66411C4.9211 8.63476 4.97561 8.59193 5.01875 8.53875L7.2325 5.78875C7.29991 5.70674 7.33676 5.60387 7.33676 5.49771C7.33676 5.39155 7.29991 5.28868 7.2325 5.20667L4.94083 2.45667C4.86303 2.36307 4.75124 2.30421 4.63004 2.29303C4.50885 2.28186 4.38818 2.31929 4.29458 2.39708C4.20098 2.47488 4.14212 2.58667 4.13095 2.70787C4.11977 2.82906 4.1572 2.94973 4.235 3.04333L6.28375 5.5L4.30375 7.95667C4.2477 8.02394 4.2121 8.10587 4.20115 8.19274C4.19021 8.27962 4.20438 8.36781 4.24199 8.44689C4.2796 8.52596 4.33907 8.59261 4.41337 8.63894C4.48767 8.68528 4.57369 8.70936 4.66125 8.70833Z" fill="white"/>
</svg>
