<svg width="46" height="46" viewBox="0 0 46 46" fill="none" xmlns="http://www.w3.org/2000/svg">
<path d="M21.0834 3.89087V7.76254C12.6692 8.79754 6.70836 16.445 7.74336 24.8592C8.62503 31.8359 14.1067 37.375 21.0834 38.1992V42.0325C10.5417 40.9784 2.87503 31.625 3.92919 21.0834C4.79169 11.9792 12.0175 4.7917 21.0834 3.89087V3.89087ZM24.9167 3.94837C28.6542 4.31254 32.2192 5.75004 35.1325 8.16504L32.3917 11.0017C30.245 9.2767 27.6575 8.16504 24.9167 7.7817V3.94837V3.94837ZM37.835 10.8675C40.2315 13.7758 41.7063 17.3326 42.0709 21.0834H38.2375C37.8734 18.3617 36.8 15.7742 35.0942 13.6084L37.835 10.8675ZM42.0517 24.9167C41.6684 28.6734 40.1925 32.2192 37.8159 35.1325L35.0942 32.3917C36.7867 30.2251 37.8658 27.6434 38.2184 24.9167H42.0517V24.9167ZM32.3917 35.2092L35.1325 37.835C32.2292 40.2552 28.6748 41.7623 24.9167 42.1667V38.3334C27.6433 37.9808 30.2251 36.9018 32.3917 35.2092V35.2092ZM22.0417 13.4167V23.4792L13.4167 28.5967L14.8542 30.9542L24.9167 24.9167V13.4167H22.0417Z" fill="black"/>
</svg>
