<svg width="33" height="32" viewBox="0 0 33 32" fill="none" xmlns="http://www.w3.org/2000/svg">
<g clip-path="url(#clip0_64_361)">
<path d="M3.35001 6.52653C2.99301 6.01347 2.82557 5.36159 2.96169 4.66941C3.30688 2.91441 5.35895 2.13922 6.79395 3.12553C11.6284 -0.395157 18.3625 -1.24559 24.2581 2.15328C34.9006 8.28884 34.9006 23.711 24.2581 29.8466C13.6155 35.9822 0.240007 28.2711 0.240007 16C0.240007 12.3602 1.41688 9.12159 3.35001 6.52653ZM23.6413 28.7815C33.4652 23.1179 33.4652 8.88203 23.6413 3.21841C18.2355 0.101906 12.0661 0.855905 7.61001 4.05153C8.24969 5.31691 7.67857 6.97572 6.2002 7.47447C5.52251 7.70316 4.84426 7.62372 4.28144 7.33722C2.53288 9.71884 1.47082 12.6782 1.47082 16C1.47082 27.3272 13.8174 34.4451 23.6413 28.7815L23.6413 28.7815ZM23.6247 16C23.6381 11.3448 21.4861 8.63397 16.24 8.61534C11.4334 8.59828 8.85857 10.9576 8.85538 16C8.85251 20.5636 10.9723 23.4422 16.24 23.3845C21.5949 23.326 23.6118 20.4187 23.6246 16H23.6247Z" fill="#535353"/>
</g>
<defs>
<clipPath id="clip0_64_361">
<rect width="32" height="32" fill="white" transform="translate(0.23999)"/>
</clipPath>
</defs>
</svg>
