<svg width="32" height="32" viewBox="0 0 36 36" fill="none" xmlns="http://www.w3.org/2000/svg">
<path d="M21.4286 2V6.57143L23.7143 7.71429L27.1429 4.28571L31.7143 8.85714L28.2857 12.2857L29.4286 14.5714H34V21.4286H29.4286L28.2857 23.7143L31.7143 27.1429L27.1429 31.7143L23.7143 28.2857L21.4286 29.4286V34H14.5714V29.4286L12.2857 28.2857L8.85714 31.7143L4.28571 27.1429L7.71428 23.7143L6.57143 21.4286H2V14.5714H6.57143L7.71428 12.2857L4.28571 8.85714L8.85714 4.28571L12.2857 7.71429L14.5714 6.57143V2H21.4286Z" stroke="#535353" stroke-width="2.07143" stroke-linecap="round" stroke-linejoin="round"/>
<path d="M17.9999 22.5714C15.4752 22.5714 13.4285 20.5247 13.4285 18C13.4285 15.4753 15.4752 13.4286 17.9999 13.4286C20.5246 13.4286 22.5713 15.4753 22.5713 18C22.5713 20.5247 20.5246 22.5714 17.9999 22.5714Z" stroke="#535353" stroke-width="2.07143" stroke-linecap="round" stroke-linejoin="round"/>
</svg>
