<svg width="68" height="68" viewBox="0 0 68 68" fill="none" xmlns="http://www.w3.org/2000/svg">
<circle cx="34" cy="34" r="33.66" fill="black" stroke="#312727" stroke-width="0.68"/>
<circle cx="34" cy="34" r="27.88" fill="black"/>
<circle cx="34" cy="34" r="27.54" stroke="#211E1E" stroke-opacity="0.75" stroke-width="0.68"/>
<circle cx="34" cy="34" r="21.76" fill="black"/>
<circle cx="34" cy="34" r="21.4946" stroke="#211E1E" stroke-opacity="0.5" stroke-width="0.530732"/>
<circle cx="34.34" cy="33.66" r="17.34" fill="#101010"/>
<circle cx="34.34" cy="33.66" r="17.1285" stroke="#211E1E" stroke-opacity="0.25" stroke-width="0.422927"/>
<path d="M32.629 40.205C32.7687 40.2055 32.9067 40.1746 33.0329 40.1148C33.1591 40.0549 33.2703 39.9675 33.3583 39.8591L37.8743 34.2491C38.0119 34.0817 38.087 33.8719 38.087 33.6553C38.087 33.4388 38.0119 33.2289 37.8743 33.0616L33.1993 27.4516C33.0406 27.2607 32.8126 27.1406 32.5653 27.1178C32.3181 27.095 32.0719 27.1713 31.881 27.3301C31.69 27.4888 31.57 27.7168 31.5472 27.9641C31.5244 28.2113 31.6007 28.4575 31.7594 28.6484L35.9389 33.66L31.8997 38.6716C31.7854 38.8088 31.7127 38.976 31.6904 39.1532C31.6681 39.3304 31.697 39.5103 31.7737 39.6717C31.8504 39.833 31.9717 39.9689 32.1233 40.0634C32.2749 40.158 32.4504 40.2071 32.629 40.205Z" fill="white"/>
</svg>
