<svg width="40" height="40" viewBox="0 0 48 48" fill="none" xmlns="http://www.w3.org/2000/svg">
<path d="M15 3.99994C11.42 6.29994 9 10.3599 9 14.9999C9 19.6399 11.42 23.6999 15.06 25.9999C8.92 25.9999 4 21.0799 4 14.9999C4 12.0826 5.15893 9.28467 7.22183 7.22177C9.28473 5.15887 12.0826 3.99994 15 3.99994ZM38.14 6.99994L41 9.85994L9.86 40.9999L7 38.1399L38.14 6.99994ZM25.78 11.8599L22.82 9.99994L19.94 11.9999L20.78 8.59994L18 6.47994L21.5 6.23994L22.66 2.93994L24 6.19994L27.46 6.25994L24.76 8.51994L25.78 11.8599ZM19.18 19.0799L16.86 17.6199L14.62 19.1799L15.3 16.5399L13.12 14.8799L15.84 14.6999L16.74 12.1199L17.76 14.6599L20.48 14.7199L18.38 16.4599L19.18 19.0799ZM38 26.9999C38 29.9173 36.8411 32.7152 34.7782 34.7781C32.7153 36.841 29.9174 37.9999 27 37.9999C24.56 37.9999 22.3 37.1999 20.48 35.8599L35.86 20.4799C37.2 22.2999 38 24.5599 38 26.9999ZM29.2 40.1599L34.74 37.8599L34.26 44.5599L29.2 40.1599ZM37.86 34.7599L40.16 29.2199L44.56 34.2999L37.86 34.7599ZM40.16 24.8399L37.88 19.2799L44.56 19.7599L40.16 24.8399ZM19.26 37.8599L24.8 40.1599L19.74 44.5399L19.26 37.8599Z" fill="white"/>
</svg>
