<svg width="12" height="12" viewBox="0 0 12 12" fill="none" xmlns="http://www.w3.org/2000/svg">
<path fill-rule="evenodd" clip-rule="evenodd" d="M3.25 10C2.91848 10 2.60054 9.8683 2.36612 9.63388C2.1317 9.39946 2 9.08152 2 8.75C2 8.41848 2.1317 8.10054 2.36612 7.86612C2.60054 7.6317 2.91848 7.5 3.25 7.5C3.58152 7.5 3.89946 7.6317 4.13388 7.86612C4.3683 8.10054 4.5 8.41848 4.5 8.75C4.5 9.08152 4.3683 9.39946 4.13388 9.63388C3.89946 9.8683 3.58152 10 3.25 10ZM3.25 10.5C2.78587 10.5 2.34075 10.3156 2.01256 9.98744C1.68437 9.65925 1.5 9.21413 1.5 8.75C1.5 8.28587 1.68437 7.84075 2.01256 7.51256C2.34075 7.18437 2.78587 7 3.25 7C3.71413 7 4.15925 7.18437 4.48744 7.51256C4.81563 7.84075 5 8.28587 5 8.75C5 9.21413 4.81563 9.65925 4.48744 9.98744C4.15925 10.3156 3.71413 10.5 3.25 10.5Z" fill="black"/>
<path fill-rule="evenodd" clip-rule="evenodd" d="M3.25 7.875C3.1837 7.875 3.12011 7.90134 3.07322 7.94822C3.02634 7.99511 3 8.0587 3 8.125V8.6465L2.82325 8.82325C2.77771 8.8704 2.75251 8.93355 2.75308 8.9991C2.75365 9.06465 2.77994 9.12735 2.82629 9.17371C2.87265 9.22006 2.93535 9.24635 3.0009 9.24692C3.06645 9.24749 3.1296 9.22229 3.17675 9.17675L3.5 8.8535V8.125C3.5 8.0587 3.47366 7.99511 3.42678 7.94822C3.37989 7.90134 3.3163 7.875 3.25 7.875ZM8.5 5.75H9V6.25H8.5V5.75ZM9 5.25C9.13261 5.25 9.25979 5.30268 9.35355 5.39645C9.44732 5.49021 9.5 5.61739 9.5 5.75V6.25C9.5 6.38261 9.44732 6.50979 9.35355 6.60355C9.25979 6.69732 9.13261 6.75 9 6.75H8.5C8.36739 6.75 8.24021 6.69732 8.14645 6.60355C8.05268 6.50979 8 6.38261 8 6.25V5.75C8 5.61739 8.05268 5.49021 8.14645 5.39645C8.24021 5.30268 8.36739 5.25 8.5 5.25H9ZM6.5 5.75H7V6.25H6.5V5.75ZM7 5.25C7.13261 5.25 7.25978 5.30268 7.35355 5.39645C7.44732 5.49021 7.5 5.61739 7.5 5.75V6.25C7.5 6.38261 7.44732 6.50979 7.35355 6.60355C7.25978 6.69732 7.13261 6.75 7 6.75H6.5C6.36739 6.75 6.24021 6.69732 6.14645 6.60355C6.05268 6.50979 6 6.38261 6 6.25V5.75C6 5.61739 6.05268 5.49021 6.14645 5.39645C6.24021 5.30268 6.36739 5.25 6.5 5.25H7ZM4.5 5.75H5V6.25H4.5V5.75ZM5 5.25C5.13261 5.25 5.25978 5.30268 5.35355 5.39645C5.44732 5.49021 5.5 5.61739 5.5 5.75V6.25C5.5 6.38261 5.44732 6.50979 5.35355 6.60355C5.25978 6.69732 5.13261 6.75 5 6.75H4.5C4.36739 6.75 4.24021 6.69732 4.14645 6.60355C4.05268 6.50979 4 6.38261 4 6.25V5.75C4 5.61739 4.05268 5.49021 4.14645 5.39645C4.24021 5.30268 4.36739 5.25 4.5 5.25H5ZM8.5 7.75H9V8.25H8.5V7.75ZM9 7.25C9.13261 7.25 9.25979 7.30268 9.35355 7.39645C9.44732 7.49021 9.5 7.61739 9.5 7.75V8.25C9.5 8.38261 9.44732 8.50979 9.35355 8.60355C9.25979 8.69732 9.13261 8.75 9 8.75H8.5C8.36739 8.75 8.24021 8.69732 8.14645 8.60355C8.05268 8.50979 8 8.38261 8 8.25V7.75C8 7.61739 8.05268 7.49021 8.14645 7.39645C8.24021 7.30268 8.36739 7.25 8.5 7.25H9ZM6.5 7.75H7V8.25H6.5V7.75ZM7 7.25C7.13261 7.25 7.25978 7.30268 7.35355 7.39645C7.44732 7.49021 7.5 7.61739 7.5 7.75V8.25C7.5 8.38261 7.44732 8.50979 7.35355 8.60355C7.25978 8.69732 7.13261 8.75 7 8.75H6.5C6.36739 8.75 6.24021 8.69732 6.14645 8.60355C6.05268 8.50979 6 8.38261 6 8.25V7.75C6 7.61739 6.05268 7.49021 6.14645 7.39645C6.24021 7.30268 6.36739 7.25 6.5 7.25H7Z" fill="black"/>
<path fill-rule="evenodd" clip-rule="evenodd" d="M10 3C10 2.9337 9.97366 2.87011 9.92678 2.82322C9.87989 2.77634 9.8163 2.75 9.75 2.75H8.5V2.25H9.75C9.94891 2.25 10.1397 2.32902 10.2803 2.46967C10.421 2.61032 10.5 2.80109 10.5 3V9C10.5 9.19891 10.421 9.38968 10.2803 9.53033C10.1397 9.67098 9.94891 9.75 9.75 9.75H4.68625C4.79286 9.59729 4.87431 9.42849 4.9275 9.25H9.75C9.8163 9.25 9.87989 9.22366 9.92678 9.17678C9.97366 9.12989 10 9.0663 10 9V3ZM3.5 7.0175C3.33418 6.99378 3.16582 6.99378 3 7.0175V3C3 2.80109 3.07902 2.61032 3.21967 2.46967C3.36032 2.32902 3.55109 2.25 3.75 2.25H4.5V2.75H3.75C3.6837 2.75 3.62011 2.77634 3.57322 2.82322C3.52634 2.87011 3.5 2.9337 3.5 3V7.0175ZM8 2.75H5.35925V2.25H8V2.75Z" fill="black"/>
<path fill-rule="evenodd" clip-rule="evenodd" d="M3 4.5H10V4H3V4.5Z" fill="black"/>
<path d="M9 1.75C9 1.6837 8.97366 1.62011 8.92678 1.57322C8.87989 1.52634 8.8163 1.5 8.75 1.5C8.6837 1.5 8.62011 1.52634 8.57322 1.57322C8.52634 1.62011 8.5 1.6837 8.5 1.75V3C8.5 3.0663 8.52634 3.12989 8.57322 3.17678C8.62011 3.22366 8.6837 3.25 8.75 3.25C8.8163 3.25 8.87989 3.22366 8.92678 3.17678C8.97366 3.12989 9 3.0663 9 3V1.75ZM5.5 1.75C5.5 1.6837 5.47366 1.62011 5.42678 1.57322C5.37989 1.52634 5.3163 1.5 5.25 1.5C5.1837 1.5 5.12011 1.52634 5.07322 1.57322C5.02634 1.62011 5 1.6837 5 1.75V3C5 3.0663 5.02634 3.12989 5.07322 3.17678C5.12011 3.22366 5.1837 3.25 5.25 3.25C5.3163 3.25 5.37989 3.22366 5.42678 3.17678C5.47366 3.12989 5.5 3.0663 5.5 3V1.75Z" fill="black"/>
</svg>
